<?xml version="1.0" encoding="UTF-8"?>
<svg id="Layer_2" data-name="Layer 2" xmlns="http://www.w3.org/2000/svg" viewBox="0 0 117.78 130.84">
  <defs>
    <style>
      .cls-1 {
        fill: #fb0;
        stroke: #231f20;
        stroke-miterlimit: 10;
      }
    </style>
  </defs>
  <g id="_ëîé_1" data-name="‘ëîé_1">
    <g>
      <path class="cls-1" d="M50.26,22.64c.05.58.09,1.16.13,1.72,2.29,23.61,5.1,32.03,10.5,37.87,5.84,5.4,14.26,8.21,37.87,10.5.56.04,1.13.09,1.72.13-.58.05-1.16.09-1.72.13-23.61,2.29-32.03,5.1-37.87,10.5-5.4,5.84-8.21,14.26-10.5,37.87-.04.56-.09,1.13-.13,1.72-.05-.58-.09-1.16-.13-1.72-2.29-23.61-5.1-32.03-10.5-37.87-5.84-5.4-14.26-8.21-37.87-10.5-.56-.04-1.13-.09-1.72-.13.58-.05,1.16-.09,1.72-.13,23.61-2.29,32.03-5.1,37.87-10.5,5.4-5.84,8.21-14.26,10.5-37.87.04-.56.09-1.13.13-1.72Z"/>
      <path class="cls-1" d="M15.37,20.12c.01.13.02.26.03.39.52,5.41,1.17,7.34,2.4,8.67,1.34,1.24,3.27,1.88,8.67,2.4.13,0,.26.02.39.03-.13.01-.26.02-.39.03-5.41.52-7.34,1.17-8.67,2.4-1.24,1.34-1.88,3.27-2.4,8.67,0,.13-.02.26-.03.39-.01-.13-.02-.26-.03-.39-.52-5.41-1.17-7.34-2.4-8.67-1.34-1.24-3.27-1.88-8.67-2.4-.13,0-.26-.02-.39-.03.13-.01.26-.02.39-.03,5.41-.52,7.34-1.17,8.67-2.4,1.24-1.34,1.88-3.27,2.4-8.67,0-.13.02-.26.03-.39Z"/>
      <path class="cls-1" d="M84.13,100.58c.01.18.03.35.04.52.69,7.1,1.53,9.64,3.16,11.4,1.76,1.63,4.29,2.47,11.4,3.16.17.01.34.03.52.04-.18.01-.35.03-.52.04-7.1.69-9.64,1.53-11.4,3.16-1.63,1.76-2.47,4.29-3.16,11.4-.01.17-.03.34-.04.52-.01-.18-.03-.35-.04-.52-.69-7.1-1.53-9.64-3.16-11.4-1.76-1.63-4.29-2.47-11.4-3.16-.17-.01-.34-.03-.52-.04.18-.01.35-.03.52-.04,7.1-.69,9.64-1.53,11.4-3.16,1.63-1.76,2.47-4.29,3.16-11.4.01-.17.03-.34.04-.52Z"/>
      <path class="cls-1" d="M91.75.04c.02.3.05.6.07.89,1.18,12.22,2.64,16.58,5.43,19.6,3.02,2.79,7.38,4.25,19.6,5.43.29.02.59.05.89.07-.3.02-.6.05-.89.07-12.22,1.18-16.58,2.64-19.6,5.43-2.79,3.02-4.25,7.38-5.43,19.6-.02.29-.05.59-.07.89-.02-.3-.05-.6-.07-.89-1.18-12.22-2.64-16.58-5.43-19.6-3.02-2.79-7.38-4.25-19.6-5.43-.29-.02-.59-.05-.89-.07.3-.02.6-.05.89-.07,12.22-1.18,16.58-2.64,19.6-5.43,2.79-3.02,4.25-7.38,5.43-19.6.02-.29.05-.59.07-.89Z"/>
    </g>
  </g>
</svg>